<?xml version="1.0" encoding="utf-8"?>
<!-- Generator: Adobe Illustrator 24.0.0, SVG Export Plug-In . SVG Version: 6.00 Build 0)  -->
<svg version="1.1" id="Layer_1" xmlns="http://www.w3.org/2000/svg" xmlns:xlink="http://www.w3.org/1999/xlink" x="0px" y="0px"
	 viewBox="0 0 26 26" style="enable-background:new 0 0 26 26;" xml:space="preserve">
<style type="text/css">
	.st0{fill:#B299F8;}
	.st1{fill:#B097F8;}
	.st2{fill:url(#SVGID_1_);}
	.st3{fill:url(#SVGID_2_);}
	.st4{fill:url(#SVGID_3_);}
	.st5{fill:url(#SVGID_4_);}
	.st6{fill:#7800F7;}
</style>
<g>
	<path class="st0" d="M16.5,19.9v2.5c-0.2,0-0.5,0-0.7,0c-0.3,0-0.5,0-0.8,0v-2.5c0.3,0.1,0.5,0.1,0.8,0.1
		C16,19.9,16.2,19.9,16.5,19.9L16.5,19.9z"/>
	<path class="st1" d="M11.4,3.7v2.5c-0.4-0.1-0.8-0.2-1.2-0.2c-0.3,0-0.6,0-0.8,0.1V3.7c0.3,0,0.6-0.1,0.8-0.1
		C10.7,3.6,11.1,3.6,11.4,3.7z"/>
	
		<linearGradient id="SVGID_1_" gradientUnits="userSpaceOnUse" x1="10.1959" y1="881.6711" x2="15.6652" y2="887.1395" gradientTransform="matrix(1 0 0 1 0 -878)">
		<stop  offset="0.34" style="stop-color:#B097F8"/>
		<stop  offset="1" style="stop-color:#B097F8;stop-opacity:0"/>
	</linearGradient>
	<path class="st2" d="M16,7c-0.8,0.6-1.4,1.5-1.6,2.6c-0.1,0.3-0.1,0.6-0.1,0.9v-0.5c0-2.2-1.8-4-4-4V3.6C12.7,3.6,14.9,5,16,7L16,7
		z"/>
	
		<linearGradient id="SVGID_2_" gradientUnits="userSpaceOnUse" x1="10.3427" y1="894.8523" x2="15.8117" y2="900.3213" gradientTransform="matrix(1 0 0 1 0 -878)">
		<stop  offset="0" style="stop-color:#B097F8;stop-opacity:0"/>
		<stop  offset="0.72" style="stop-color:#B097F8"/>
	</linearGradient>
	<path class="st3" d="M15.7,19.9v2.5c-2.5,0-4.6-1.4-5.7-3.4c0.8-0.6,1.4-1.5,1.6-2.6c0.1-0.3,0.1-0.6,0.1-0.9v0.5
		C11.7,18.1,13.5,19.9,15.7,19.9L15.7,19.9z"/>
	<linearGradient id="SVGID_3_" gradientUnits="userSpaceOnUse" x1="4.8988" y1="7.928" x2="8.5701" y2="18.0125">
		<stop  offset="5.643716e-02" style="stop-color:#B097F8"/>
		<stop  offset="0.5895" style="stop-color:#8855F7"/>
		<stop  offset="0.9197" style="stop-color:#7800F7"/>
	</linearGradient>
	<path class="st4" d="M8.9,16.6c-0.3,0.4-0.8,0.7-1.3,0.8c-0.1,0-0.3,0-0.4,0c-1.1,0-2-0.9-2-2c-0.9-0.1-1.8-0.6-2.3-1.3
		c-0.3-0.5-0.5-1-0.5-1.6c0-1,0.5-1.9,1.3-2.5c0.5-0.3,1-0.5,1.6-0.5h0.9c0.1-0.8,0.4-1.6,0.9-2.1C7.9,6.6,9,6.1,10.3,6.1V3.6
		c-2.6,0-4.8,1.5-5.8,3.6C1.9,7.7,0,9.9,0,12.6c0,2.2,1.3,4.1,3.2,4.9c0.7,1.5,2.3,2.4,4,2.4c1,0,2-0.4,2.8-1
		c0.3-0.2,0.5-0.4,0.7-0.7L9,16.5C9,16.6,8.9,16.6,8.9,16.6z"/>
	<linearGradient id="SVGID_4_" gradientUnits="userSpaceOnUse" x1="18.8745" y1="8.4636" x2="21.8068" y2="21.8968">
		<stop  offset="8.027273e-02" style="stop-color:#7800F7"/>
		<stop  offset="0.4105" style="stop-color:#8855F7"/>
		<stop  offset="0.7997" style="stop-color:#B097F8"/>
	</linearGradient>
	<path class="st5" d="M22.8,8.5c-0.7-1.5-2.2-2.4-4-2.4c-1,0-2,0.4-2.8,1c-0.3,0.2-0.5,0.4-0.7,0.7L17,9.5c0,0,0-0.1,0.1-0.1
		c0.3-0.4,0.8-0.7,1.3-0.8c0.1,0,0.3,0,0.4,0c1.1,0,2,0.9,2,2c0.9,0.1,1.8,0.6,2.3,1.3c0.3,0.5,0.5,1,0.5,1.6c0,1-0.5,1.9-1.3,2.5
		c-0.5,0.3-1,0.5-1.6,0.5h-0.9c-0.1,0.8-0.4,1.6-0.9,2.1c-0.7,0.9-1.8,1.4-3.1,1.4v2.5c2.6,0,4.8-1.5,5.8-3.6
		c2.5-0.4,4.4-2.7,4.4-5.3C26,11.2,24.7,9.3,22.8,8.5z"/>
	<path class="st6" d="M14.4,9.6c-0.1,0.3-0.1,0.6-0.1,0.9v2.1l-2.1-2.8C11.7,9.1,10.6,9,9.9,9.5c-0.4,0.3-0.6,0.8-0.6,1.3v4.7
		c0,0.3-0.1,0.7-0.2,1c0,0,0,0.1-0.1,0.1l1.7,1.7c0.4-0.5,0.8-1.2,0.9-1.9c0.1-0.3,0.1-0.6,0.1-0.9v-2.1l2,2.8
		c0.5,0.7,1.5,0.9,2.3,0.4c0.4-0.3,0.7-0.8,0.7-1.3v-4.7c0-0.4,0.1-0.7,0.2-1c0,0,0-0.1,0.1-0.1l-1.7-1.7
		C14.8,8.3,14.5,8.9,14.4,9.6z"/>
</g>
</svg>
